<!DOCTYPE svg PUBLIC "-//W3C//DTD SVG 20010904//EN" "http://www.w3.org/TR/2001/REC-SVG-20010904/DTD/svg10.dtd">
<svg version="1.0" xmlns="http://www.w3.org/2000/svg" width="220px" height="160px" viewBox="0 0 2200 1600" preserveAspectRatio="xMidYMid meet">
<g id="layer101" fill="#ff0202" stroke="none">
 <path d="M13 1593 c-7 -2 -13 -16 -13 -29 0 -23 3 -24 71 -24 58 0 80 -5 121 -27 43 -24 50 -25 64 -12 40 41 -58 99 -166 98 -36 0 -71 -3 -77 -6z"/>
 <path d="M287 1463 c-13 -12 -7 -41 18 -94 13 -30 27 -73 31 -97 6 -42 27 -64 52 -55 25 9 10 93 -35 196 -24 53 -46 70 -66 50z"/>
 <path d="M360 1052 c0 -125 9 -152 45 -138 13 5 15 25 13 128 l-3 123 -27 3 -28 3 0 -119z"/>
 <path d="M371 798 c0 -40 4 -95 7 -123 6 -46 9 -50 35 -53 l29 -3 -7 103 c-8 141 -10 148 -40 148 -24 0 -25 -2 -24 -72z"/>
 <path d="M404 565 c-8 -19 18 -118 46 -182 14 -31 25 -43 40 -43 30 0 35 25 15 70 -10 21 -25 67 -35 102 -13 50 -21 64 -39 66 -13 2 -24 -3 -27 -13z"/>
 <path d="M522 308 c-20 -20 -14 -33 36 -81 57 -53 105 -79 135 -75 35 5 33 36 -4 56 -18 9 -56 38 -86 65 -57 51 -63 53 -81 35z"/>
 <path d="M980 247 c0 -15 18 -38 55 -69 l56 -47 -56 -42 c-40 -30 -55 -48 -55 -65 0 -39 38 -30 108 26 53 44 62 56 62 84 0 28 -9 40 -64 84 -70 57 -106 67 -106 29z"/>
 <path d="M763 173 c-7 -2 -13 -13 -13 -24 0 -27 38 -39 121 -39 66 0 69 1 69 24 0 22 -5 25 -47 31 -95 12 -118 13 -130 8z"/>
 </g>

</svg>