<svg xmlns="http://www.w3.org/2000/svg" viewBox="0 0 456.92 640"><defs><style>.cls-1{opacity:.5}.cls-2,.cls-3,.cls-4,.cls-5,.cls-6,.cls-7,.cls-8{fill-rule:evenodd}.cls-3{fill:url(#GradientFill_12)}.cls-4{fill:url(#GradientFill_11)}.cls-5{fill:url(#GradientFill_10)}.cls-6{fill:url(#GradientFill_9)}.cls-7{fill:url(#GradientFill_7)}.cls-8{fill:url(#GradientFill_6)}.cls-9{font-size:226.64px;stroke:#fff;stroke-miterlimit:10;stroke-width:3px;font-family:SegoeUI-Semibold,Segoe UI;font-weight:700}.cls-10,.cls-9{fill:#01016d}</style><linearGradient id="GradientFill_12" x1="438.41" y1="295.66" x2="98.74" y2="235.77" gradientUnits="userSpaceOnUse"><stop offset="0" stop-color="#064ca6"/><stop offset=".35" stop-color="#008bda"/><stop offset=".62" stop-color="#6eb6eb"/><stop offset="1" stop-color="#fff"/></linearGradient><linearGradient id="GradientFill_11" x1="266.62" y1="597.34" x2="128.97" y2="1.12" gradientUnits="userSpaceOnUse"><stop offset="0" stop-color="#064ca6"/><stop offset=".2" stop-color="#008bda"/><stop offset=".45" stop-color="#6eb6eb"/><stop offset="1" stop-color="#fff"/></linearGradient><radialGradient id="GradientFill_10" cx="150.84" cy="296.13" r="273.12" gradientUnits="userSpaceOnUse"><stop offset="0" stop-color="#fff"/><stop offset=".35" stop-color="#91d4f9"/><stop offset=".75" stop-color="#00a3ef"/><stop offset="1" stop-color="#134b9a"/></radialGradient><radialGradient id="GradientFill_9" cx="212.41" cy="290.38" r="222.97" gradientUnits="userSpaceOnUse"><stop offset="0" stop-color="#fff"/><stop offset=".28" stop-color="#91d4f9"/><stop offset=".61" stop-color="#00a3ef"/><stop offset="1" stop-color="#134b9a"/></radialGradient><radialGradient id="GradientFill_7" cx="136.34" cy="298.56" r="178.17" gradientUnits="userSpaceOnUse"><stop offset="0" stop-color="#fff"/><stop offset=".51" stop-color="#9dd9fa"/><stop offset=".65" stop-color="#94cfea"/><stop offset=".85" stop-color="#31baf5"/><stop offset="1" stop-color="#134b9a"/></radialGradient><linearGradient id="GradientFill_6" x1="80.47" y1="515.09" x2="136.86" y2="270.85" gradientUnits="userSpaceOnUse"><stop offset="0" stop-color="#064ca6"/><stop offset=".1" stop-color="#008bda"/><stop offset=".26" stop-color="#7accf8"/><stop offset="1" stop-color="#fff"/></linearGradient></defs><g id="Layer_2" data-name="Layer 2"><g id="_11" data-name="11"><g class="cls-1"><path class="cls-2" d="M305.42 140.91c0 .06-.24.11-.52.11s-.53-.05-.53-.11.24-.12.53-.12.52.05.52.12z"/></g><g class="cls-1"><path class="cls-2" d="M201.06 359.1c0 .07-.24.12-.52.12s-.53-.05-.53-.12.23-.11.53-.11.52.01.52.11z"/></g><g class="cls-1"><path class="cls-2" d="M456.92 148c0 .07-.24.12-.52.12s-.53 0-.53-.12.23-.11.53-.11.52.11.52.11z"/></g><g class="cls-1"><path class="cls-2" d="M409.07 357.55c0 .06-.24.11-.52.11s-.53-.05-.53-.11.23-.12.53-.12.52.05.52.12z"/></g><path class="cls-3" d="M209.81 0c47.86 119.41 134.59 255 148.9 337.35 7.86 41.38.88 88.18-27.24 120.25-50.33 58.5-138.28 72.72-200.84 19.85-42.74-34.94-57.81-94.21-49.92-143.39C93 249.75 166.94 148.11 209.81 0z"/><path class="cls-4" d="M207.51 29.92c6.26 41.65 37.48 96.62 67.55 153.77 30.42 56.49 59.69 115.16 70.23 148.84 14.3 47.52 10.37 101.76-20.88 137.68-47.92 56.53-139.41 57.2-196.65 4.07-45.26-40.59-59.34-84.84-41.93-141.37C102 273.67 196.32 90.56 207.51 29.92z"/><path class="cls-5" d="M217.78 494.55c-74-2.22-134.64-60.52-133.86-126.92a154 154 0 0 1 7.6-46.31c15.85-55.59 103.18-203.78 119.61-299.2 24.15 71.92 112.36 233.74 128.15 286 6.73 20 12.34 39.9 12.36 59.56.78 66.32-59.87 124.65-133.86 126.87z"/><path class="cls-6" d="M124.35 438.15c-.54-3.17 49.88 46.93 120.14 33.36 51.94-15 81.23-45.62 90.92-82.38 9.76-37.5-.07-81.13-25-139 5.38 56.54-47.14 39.63-64.59 113.87-27.5 117.88-111.9 87.61-121.47 74.15z"/><path class="cls-7" d="M148.53 442.76c-62.18-34.41-79.93-82-17.57-217.35-22.74 89.08-14.32 129.72 9 152.38 23.23 21.78 61.4 25.6 94.77 20.84-15.81 36.79-57.73 58.09-86.2 44.13z"/><path class="cls-8" d="M126 342.21c-.07-.35-4-26-1.65-45.07 1.84-20.4 14.41-53.67 14.5-52.21-.13.22 1.71 8.49 7.26 18-2.11 4.26-17.21 39.54-20.11 79.28z"/><text class="cls-9" transform="translate(1.5 387.77)">ОВК</text><path class="cls-10" d="M375.24 594.64a16.79 16.79 0 0 1 9.6 3.38c-2.33-2-4.8-3.34-7.46-3.34-.17 0-.6-.08-.77-.07H375c-.84 0-.93.06-1.66.06h.6c.4 0 .84-.03 1.3-.03zM110.23 620.91V640h231v-19a7.56 7.56 0 0 1-4.26 1.63c-9.62 0-19.73-27.93-35.66-27.93q-.67 0-1.35.06c-.45 0-.89-.06-1.35-.06-15.92 0-26 27.93-35.65 27.93s-19.73-27.93-35.66-27.93c-.45 0-.9 0-1.34.06s-.9-.06-1.35-.06c-15.93 0-26.05 27.93-35.66 27.93s-19.73-27.93-35.65-27.93q-.68 0-1.35.06t-1.35-.06c-15.92 0-26 27.93-35.65 27.93-9.38 0-19.23-26.55-34.49-27.87 12.72 1.43 21.68 20.39 29.77 26.15z"/><path class="cls-10" d="M372.59 594.68h.7-.75c-13.57 0-22.93 20.28-31.34 26.27v.05c8.43-6 17.8-26.32 31.39-26.32zM392.48 607.32c.82 1.13 1.62 2.33 2.4 3.59 7.12 10.81 19.15 19 27.08 4.17L419 640h20.36v-43.47c-12 6.28-20.4 26-28.49 26-7.52 0-15.36-17.12-26.05-24.55a49.31 49.31 0 0 1 7.66 9.34z"/><path class="cls-10" d="M419 640l3-24.92c-7.93 14.82-20 6.64-27.08-4.17-.78-1.26-1.58-2.46-2.4-3.59a49.31 49.31 0 0 0-7.64-9.3 16.79 16.79 0 0 0-9.6-3.38c-.46 0-.9 0-1.35.06H372.63c-13.6 0-23 20.35-31.39 26.3v19zM34.9 640L30 619.33c13.68 25.57 33.13-24.65 49.26-24.65.4 0 .79 0 1.17.06a13.13 13.13 0 0 0-1.54-.1c-.46 0-.91 0-1.35.06s-.9-.06-1.35-.06c-15.93 0-26 27.93-35.66 27.93-7.37 0-15-16.42-25.4-24.08V640z"/><path class="cls-10" d="M30 619.33L34.9 640h75.33v-19.09c-8.09-5.76-17-24.72-29.8-26.17-.38 0-.77-.06-1.17-.06-16.13 0-35.58 50.22-49.26 24.65zM375.24 562.81a16.79 16.79 0 0 1 9.6 3.38c-2.33-2-4.8-3.34-7.46-3.34-.17 0-.6-.08-.77-.07H375c-.84.05-.93.06-1.66.07h.6c.4-.01.84-.04 1.3-.04zM110.23 589.08v17.83a12 12 0 0 0 2 1.26h5.37c8.85-4.25 18.52-27.26 33-27.26.45 0 .9 0 1.35.06s.9-.06 1.35-.06c14.45 0 24.12 23 33 27.26h5.37c8.84-4.25 18.51-27.26 33-27.26.45 0 .9 0 1.35.06s.89-.06 1.34-.06c14.46 0 24.13 23 33 27.26h5.36c8.85-4.25 18.52-27.26 33-27.26.46 0 .9 0 1.35.06s.9-.06 1.35-.06c14.45 0 24.12 23 33 27.26h5.31a11.15 11.15 0 0 0 1.64-.95v-18.07a7.56 7.56 0 0 1-4.26 1.63c-9.62 0-19.73-27.93-35.66-27.93q-.67 0-1.35.06c-.45 0-.89-.06-1.35-.06-15.92 0-26 27.93-35.65 27.93s-19.73-27.93-35.66-27.93c-.45 0-.9 0-1.34.06s-.9-.06-1.35-.06c-15.93 0-26.05 27.93-35.66 27.93s-19.73-27.93-35.65-27.93q-.68 0-1.35.06t-1.35-.06c-15.92 0-26 27.93-35.65 27.93-9.38 0-19.23-26.55-34.49-27.87 12.58 1.45 21.54 20.41 29.63 26.17z"/><path class="cls-10" d="M372.59 562.85h.7-.75c-13.57 0-22.93 20.28-31.34 26.27v.07c8.43-5.99 17.8-26.34 31.39-26.34zM410.89 590.74c-7.52 0-15.36-17.11-26.05-24.55a49.64 49.64 0 0 1 7.64 9.3c.82 1.13 1.62 2.33 2.4 3.59 7.12 10.81 19.15 19 27.08 4.17L419.63 603c5.67-6.34 12-16.13 19.75-20.22v-18.07c-11.96 6.29-20.38 26.03-28.49 26.03z"/><path class="cls-10" d="M372.54 580.88h.75c.73 0 .82 0 1.66-.06h1.66c.17 0 .6.06.77.06 2.66 0 5.13 1.31 7.46 3.35 9.47 6.58 16.7 20.76 23.46 23.91h5.18a21.05 21.05 0 0 0 6.15-5.18l2.37-19.71c-7.93 14.82-20 6.64-27.08-4.17-.78-1.26-1.58-2.46-2.4-3.59a49.64 49.64 0 0 0-7.64-9.3 16.79 16.79 0 0 0-9.6-3.38c-.46 0-.9 0-1.35.06H372.63c-13.6 0-23 20.35-31.39 26.3v18c8.37-6.01 17.76-26.29 31.3-26.29zM34.29 605.56l-4.29-18c13.68 25.57 33.13-24.66 49.26-24.66.4 0 .79 0 1.17.06a13.13 13.13 0 0 0-1.54-.1c-.46 0-.91 0-1.35.06s-.9-.06-1.35-.06c-15.93 0-26 27.93-35.66 27.93-7.37 0-15-16.42-25.4-24.07v18.06c7.49 5.49 13.57 15.6 19.16 20.78z"/><path class="cls-10" d="M30 587.51l4.29 18a14.69 14.69 0 0 0 3.64 2.61h5.2C52 604 61.69 580.88 76.19 580.88q.68 0 1.35.06t1.35-.06a13.13 13.13 0 0 1 1.54.1c12.75 1.1 21.72 19.8 29.8 25.93v-17.83c-8.09-5.76-17-24.72-29.8-26.17-.38 0-.77-.06-1.17-.06-16.13 0-35.58 50.23-49.26 24.66zM375.24 580.88a16.79 16.79 0 0 1 9.6 3.38c-2.33-2-4.8-3.35-7.46-3.35-.17 0-.6-.07-.77-.06H375c-.84 0-.93.06-1.66.06h.6c.4-.01.84-.03 1.3-.03zM372.59 580.91h.7-.75c-13.57 0-22.93 20.28-31.34 26.27v.07c8.43-5.98 17.8-26.34 31.39-26.34zM110.51 566.38v10a8 8 0 0 0 4.69 1.94c9.61 0 19.73-27.93 35.65-27.93h2.7c15.93 0 26 27.93 35.66 27.93s19.72-27.93 35.65-27.93h2.7c15.92 0 26 27.93 35.65 27.93s19.73-27.93 35.66-27.93H301.56c15.93 0 26.05 27.93 35.66 27.93a7.54 7.54 0 0 0 4.26-1.63v-10.24a7.59 7.59 0 0 1-4.26 1.62c-9.61 0-19.73-27.93-35.66-27.93q-.68 0-1.35.06c-.44 0-.89-.06-1.34-.06-15.93 0-26.05 27.93-35.66 27.93s-19.73-27.93-35.65-27.93c-.46 0-.9 0-1.35.06s-.9-.06-1.35-.06c-15.93 0-26 27.93-35.65 27.93s-19.73-27.93-35.66-27.93q-.68 0-1.35.06c-.45 0-.89-.06-1.35-.06-15.92 0-26 27.93-35.65 27.93-9.37 0-19.23-26.55-34.48-27.87 12.74 1.46 21.7 20.41 29.79 26.18zM411.17 568c-7.52 0-15.36-17.12-26.05-24.55a49.23 49.23 0 0 1 7.64 9.29c.82 1.13 1.62 2.33 2.4 3.59 7.12 10.81 19.15 19 27.08 4.17L421 571.22c5.4-6.32 11.38-15.17 18.68-19V542c-11.98 6.27-20.42 26-28.51 26z"/><path class="cls-10" d="M372.82 550.33h.75c.73 0 .82 0 1.66-.06h1.66c.17 0 .6.07.78.07 2.66 0 5.12 1.3 7.45 3.34 10.69 7.43 18.53 24.55 26.05 24.55 3.15 0 6.36-3 9.81-7l1.26-10.68c-7.93 14.82-20 6.64-27.08-4.17-.78-1.26-1.58-2.46-2.4-3.59a49.23 49.23 0 0 0-7.64-9.29 16.69 16.69 0 0 0-9.6-3.38H372.87c-13.6 0-23 20.36-31.39 26.31v10.17c8.42-5.99 17.77-26.27 31.34-26.27zM32.1 572.47l-1.82-7.67c13.72 25.57 33.13-24.66 49.26-24.66.4 0 .79 0 1.18.06-.51-.05-1-.09-1.55-.09h-2.7c-15.92 0-26 27.93-35.65 27.93-7.38 0-15-16.43-25.41-24.08v10.22c6.4 4.74 11.78 12.82 16.69 18.29z"/><path class="cls-10" d="M30.28 564.8l1.82 7.67c3 3.39 5.9 5.79 8.72 5.79 9.61 0 19.73-27.93 35.65-27.93q.68 0 1.35.06t1.35-.06a13.3 13.3 0 0 1 1.55.1c12.74 1.1 21.72 19.8 29.79 25.93v-10c-8.09-5.77-17.05-24.72-29.79-26.18-.39 0-.78-.06-1.18-.06-16.13.02-35.54 50.25-49.26 24.68z"/><path class="cls-10" d="M110.51 576.6v-.24c-8.07-6.13-17.05-24.83-29.79-25.93 12.74 1.45 21.7 20.41 29.79 26.17z"/></g></g></svg>