<svg width="130" height="120" xmlns="http://www.w3.org/2000/svg" id="el_WtgVc3fau" viewBox="0 0 130 120"><style>@-webkit-keyframes el_V4al3KFyd7D_H98d3aK4u_Animation{0%{-webkit-transform: translate(66.2637767791748px, 41.77383995056152px) rotate(0deg) translate(-66.2637767791748px, -41.77383995056152px);transform: translate(66.2637767791748px, 41.77383995056152px) rotate(0deg) translate(-66.2637767791748px, -41.77383995056152px);}100%{-webkit-transform: translate(66.2637767791748px, 41.77383995056152px) rotate(360deg) translate(-66.2637767791748px, -41.77383995056152px);transform: translate(66.2637767791748px, 41.77383995056152px) rotate(360deg) translate(-66.2637767791748px, -41.77383995056152px);}}@keyframes el_V4al3KFyd7D_H98d3aK4u_Animation{0%{-webkit-transform: translate(66.2637767791748px, 41.77383995056152px) rotate(0deg) translate(-66.2637767791748px, -41.77383995056152px);transform: translate(66.2637767791748px, 41.77383995056152px) rotate(0deg) translate(-66.2637767791748px, -41.77383995056152px);}100%{-webkit-transform: translate(66.2637767791748px, 41.77383995056152px) rotate(360deg) translate(-66.2637767791748px, -41.77383995056152px);transform: translate(66.2637767791748px, 41.77383995056152px) rotate(360deg) translate(-66.2637767791748px, -41.77383995056152px);}}#el_WtgVc3fau *{-webkit-animation-duration: 1s;animation-duration: 1s;-webkit-animation-iteration-count: infinite;animation-iteration-count: infinite;-webkit-animation-timing-function: cubic-bezier(0, 0, 1, 1);animation-timing-function: cubic-bezier(0, 0, 1, 1);}#el_-8dalHOdwX{fill: none;visibility: hidden;}#el_YI4vRuCvHk{fill: #938994;}#el__GwMLRkM29{fill: #73717C;}#el_097Hx4U7dA{fill: #7D7D82;}#el_4T45EnesHk{fill: #EEE6EF;}#el_V9x7TT8HWn{fill: #938994;}#el_d5DNXNaqNJ{fill: #73717C;}#el_cqxyCUeBt7{fill: #7D7D82;}#el_EDOzBOYXN-{fill: #EEE6EF;}#el_JcoMtrAgSuR{fill: #076BA6;}#el_Pb6OpGJ0kBN{opacity: 0.1;fill: #F1F2F2;}#el_DwQhzAA14hl{fill: #0D99D8;}#el_UcApJEPuQtn{fill: #3482B5;}#el_4PKhH6RhiZ7{fill: #0D99D8;}#el_rBOeuhuVLch{fill: #3482B5;}#el_igK1sfPGkcj{fill: #0D99D8;}#el_srQB75cK0Ky{fill: #3482B5;}#el_T0fbrtBD9SC{fill: #0D99D8;}#el_MmNe7aKUWdD{fill: #3482B5;}#el_RxPGVDf1x0h{fill: #0D99D8;}#el_p3IjwwdANo9{fill: #3482B5;}#el_hdbpAPMb4lf{fill: #0D99D8;}#el_GgicOxY-prc{fill: #3482B5;}#el_g0qFFXr61YK{fill: #959CA0;}#el_IcXXyLQi3o6{fill: #9FA9AD;}#el_gLatSU7GVO-{fill: #D4D4D4;}#el_ZdcG2eHjD-s{fill: #C8CCCE;}#el_xcJej2q0fjl{fill: #B1B4B5;}#el_RKqtTPSacrw{fill: #C8CCCE;}#el_fdvIlHlW5zL{fill: #C8CCCE;}#el_41CK1idXyMf{fill: #C8CCCE;}#el_b7MfryCP7IZ{fill: #959CA0;}#el_GSw9pofPgWR{fill: #076BA6;}#el_atjHpU02o0T{fill: #064172;}#el_E35aKYXMxK0{fill: #1487C1;}#el_FQ7v6CERq0t{fill: #224565;}#el__8kg4Ta0idY{fill: #56ABD6;}#el_pxaIsIYURXV{fill: #82CBE8;}#el_C9NJ41lecoO{fill: #153351;}#el_0UuspWGMlmY{fill: #82CBE8;}#el_UNRgKAvGeTx{fill: #153351;}#el_weL8dKyU6nW{fill: #82CBE8;}#el_nh6_dGALCPT{fill: #153351;}#el_hzVV-uojU8K{fill: #82CBE8;}#el_53QC2_y0PRv{fill: #153351;}#el_2NYx8oWKZsa{fill: #82CBE8;}#el_rYtAxx-ugNc{fill: #153351;}#el_vG7tAFjS-X6{fill: #82CBE8;}#el_9-MueSMRleO{fill: #153351;}#el_6ktGil_rIIu{fill: #82CBE8;}#el_8Ecvhw-_Y-j{fill: #153351;}#el_deBwaKeRT5P{fill: #63B3E2;}#el_PicrIb6yz_y{fill: #153351;}#el_Xn1pYF822X7{fill: #000101;}#el_2TRxTB8tIcj{opacity: 0.5;}#el_t-DF6Ulg-KE{fill: #0E8BC9;}#el_3HFuiEzDJIa{fill: #0E8BC9;}#el_V4al3KFyd7D_H98d3aK4u{-webkit-animation-name: el_V4al3KFyd7D_H98d3aK4u_Animation;animation-name: el_V4al3KFyd7D_H98d3aK4u_Animation;}</style>
 

 <g id="el_DqFsBAVBAh">
  <title>background</title>
  
 </g>
 <g id="el_j5MnirGgIe">
  <title>Layer 1</title>
  <g id="el_7SfFV7Dy64">
   <g id="el_lJsmUPs9a2">
    <rect id="el_YI4vRuCvHk" height="15.3" width="26.1" y="69.000002" x="-6.333297"/>
    <rect id="el__GwMLRkM29" height="4.8" width="26.1" y="79.600002" x="-6.333297"/>
    <rect id="el_097Hx4U7dA" height="4.3" width="26.1" y="69.000002" x="-6.333297"/>
    <rect id="el_4T45EnesHk" height="1.5" width="25.1" y="72.400002" x="-5.733297"/>
   </g>
   <g id="el_h7Tqrls4Hl">
    <rect id="el_V9x7TT8HWn" height="15.3" width="26.1" y="69.000002" x="106.166703"/>
    <rect id="el_d5DNXNaqNJ" height="4.8" width="26.1" y="79.600002" x="106.166703"/>
    <rect id="el_cqxyCUeBt7" height="4.3" width="26.1" y="69.000002" x="106.166703"/>
    <rect id="el_EDOzBOYXN-" height="1.5" width="25.1" y="72.400002" x="106.866703"/>
   </g>
   <g id="el_8t2TzYM51j">
    <rect id="el_JcoMtrAgSuR" height="20.6" width="93.1" y="65.600002" x="21.466703"/>
    <polygon id="el_Pb6OpGJ0kBN" points="18.366689041256905,75.89997863769531 18.366689041256905,83 32.76670582592487,83 32.76670582592487,82.89997863769531 110.66672642529011,82.89997863769531 110.66672642529011,76 32.76670582592487,76 32.76670582592487,75.89997863769531 "/>
   </g>
   <g id="el_EOg2gohX47x">
    <path id="el_DwQhzAA14hl" d="m21.566703,84.400002l0,-16.5c0,-3.3 -1.5,-5.9 -3.3,-5.9l0,28.3c1.8,0 3.3,-2.6 3.3,-5.9z"/>
    <rect id="el_UcApJEPuQtn" height="28.5" width="2.5" y="61.900002" x="15.666703"/>
    <path id="el_4PKhH6RhiZ7" d="m15.766703,87.900002l0,-23.5c0,-4.7 -0.7,-4.7 -1.6,-4.7l0,32.9c0.9,0 1.6,-0.1 1.6,-4.7z"/>
    <rect id="el_rBOeuhuVLch" height="32.9" width="1.7" y="59.700002" x="12.666703"/>
   </g>
   <g id="el_5VcmZNARoZl">
    <path id="el_igK1sfPGkcj" d="m9.766703,84.400002l0,-16.5c0,-3.3 1.5,-5.9 3.3,-5.9l0,28.3c-1.8,0 -3.3,-2.6 -3.3,-5.9z"/>
    <rect id="el_srQB75cK0Ky" height="28.5" width="2.5" y="61.900002" x="13.066703"/>
    <path id="el_T0fbrtBD9SC" d="m15.466703,87.900002l0,-23.5c0,-4.7 0.7,-4.7 1.6,-4.7l0,32.9c-0.9,0 -1.6,-0.1 -1.6,-4.7z"/>
    <rect id="el_MmNe7aKUWdD" height="32.9" width="1.7" y="59.700002" x="16.966703"/>
   </g>
   <g id="el_g2XBD04nRP0">
    <path id="el_RxPGVDf1x0h" d="m110.766703,83.400002l0,-16.5c0,-3.3 1.5,-5.9 3.3,-5.9l0,28.3c-1.8,0.1 -3.3,-2.6 -3.3,-5.9z"/>
    <rect id="el_p3IjwwdANo9" height="28.5" width="2.5" y="61.000002" x="114.066703"/>
    <path id="el_hdbpAPMb4lf" d="m116.466703,86.900002l0,-23.5c0,-4.7 0.7,-4.7 1.6,-4.7l0,32.9c-0.9,0 -1.6,0 -1.6,-4.7z"/>
    <rect id="el_GgicOxY-prc" height="32.9" width="1.7" y="58.700002" x="117.966703"/>
   </g>
   <g id="el_LDMponxuXtc">
    <g id="el_V6u8Ueq0oo9">
     <path id="el_g0qFFXr61YK" d="m91.966703,108.000002c-18.9,5.4 -35.5,5.4 -54.3,0c5.4,-8 12.1,-15.9 14.2,-25.5c8.7,0 17.3,0 26,0c2,9.6 8.7,17.5 14.1,25.5z"/>
    </g>
    <g id="el_RyFNTuGZVls">
     <path id="el_IcXXyLQi3o6" d="m82.366703,108.000002c-12.8,5.4 -24.1,5.4 -37,0c3.7,-8 8.3,-15.9 9.7,-25.5c5.9,0 11.8,0 17.7,0c1.4,9.6 6,17.5 9.6,25.5z"/>
    </g>
    <path id="el_gLatSU7GVO-" d="m84.166703,105.300002l-36.5,0c-7.3,0 -13.2,2.5 -13.2,5.5l62.8,0c0,-3 -5.9,-5.5 -13.1,-5.5z"/>
    <rect id="el_ZdcG2eHjD-s" height="4.2" width="63" y="110.900002" x="34.366703"/>
    <path id="el_xcJej2q0fjl" d="m91.866703,114.900002l-52,0c-10.4,0 -10.3,1.2 -10.3,2.7l72.8,0c-0.1,-1.5 -0.2,-2.7 -10.5,-2.7z"/>
    <rect id="el_RKqtTPSacrw" height="2.8" width="72.9" y="117.300002" x="29.466703"/>
    <g id="el_XSX1vEy7vZW">
     <path id="el_fdvIlHlW5zL" d="m73.166703,105.300002l-19.7,0c-3.9,0 -7.1,2.4 -7.1,5.4l34,0c-0.1,-3 -3.2,-5.4 -7.2,-5.4z"/>
     <path id="el_41CK1idXyMf" d="m83.066703,116.900002c0,-1 -0.2,-1.8 -2.6,-2.2l0,-4l-34.1,0l0,4c-2.4,0.3 -2.6,1.2 -2.6,2.2l0,0l0,2.7l39.5,0l-0.2,-2.7l0,0z"/>
    </g>
    <path id="el_b7MfryCP7IZ" d="m51.866703,82.100002c-0.4,2 -1,3.8 -1.8,5.7c4.7,1.6 10.3,2.5 16.2,2.5c4.9,0 9.5,-0.6 13.6,-1.7c-0.9,-2.1 -1.6,-4.2 -2.1,-6.4c-8.6,-0.1 -17.3,-0.1 -25.9,-0.1z"/>
    <g id="el_Z-GlrffbKgr">
     <path id="el_GSw9pofPgWR" d="m109.766703,43.200002c0,23.9 -19.4,43.3 -43.3,43.3c-23.9,0 -43.3,-19.4 -43.3,-43.3c0,-23.9 19.4,-43.3 43.3,-43.3c23.9,0 43.3,19.4 43.3,43.3z"/>
    </g>
    <g id="el_aTnWc8EUZa7">
     <g id="el_79nfv6s-baW">
      <path id="el_atjHpU02o0T" d="m66.466703,73.700002c-16.3,0 -29.5,-13.2 -29.5,-29.5c0,-16.3 13.2,-29.5 29.5,-29.5c16.3,0 29.5,13.2 29.5,29.5c0,16.3 -13.2,29.5 -29.5,29.5zm0,-57.3c-15.3,0 -27.8,12.5 -27.8,27.8c0,15.3 12.5,27.8 27.8,27.8s27.8,-12.5 27.8,-27.8c0.1,-15.3 -12.4,-27.8 -27.8,-27.8z"/>
     </g>
     <g id="el_bIFnaHGqiL7">
      <path id="el_E35aKYXMxK0" d="m95.166703,43.200002c0,15.8 -12.8,28.7 -28.7,28.7c-15.8,0 -28.7,-12.8 -28.7,-28.7c0,-15.8 12.8,-28.7 28.7,-28.7c15.9,0.1 28.7,12.9 28.7,28.7z"/>
     </g>
    </g>
    <g id="el_V4al3KFyd7D_H98d3aK4u" data-animator-group="true" data-animator-type="1"><g id="el_V4al3KFyd7D">
     <path id="el_FQ7v6CERq0t" d="m84.066703,40.900002c-0.4,-0.1 -0.9,-0.2 -1.3,-0.2c-0.2,-1.3 -0.5,-2.5 -0.9,-3.6c0.4,-0.3 0.8,-0.6 1.2,-1c2.4,-2.4 2.5,-6.1 0.4,-8.2c-2.2,-2.1 -5.8,-1.9 -8.2,0.5c-0.1,0.1 -0.2,0.2 -0.3,0.3c-0.9,-0.6 -2,-1.1 -3,-1.5c0.1,-0.3 0.1,-0.6 0.1,-0.9c0.1,-3.4 -2.2,-6.2 -5.3,-6.3c-3,-0.1 -5.6,2.5 -5.7,5.9c0,0.3 0,0.6 0,0.9c-1.6,0.5 -3.1,1.2 -4.5,2.1c-0.3,-0.2 -0.5,-0.4 -0.8,-0.6c-2.8,-1.8 -6.4,-1.3 -8.1,1.3c-1.7,2.5 -0.7,6.1 2.1,7.9c0,0 0,0 0,0c-0.6,1.5 -0.9,3.2 -1,4.9c-0.1,0 -0.2,0 -0.4,0.1c-3.2,0.9 -5.2,4 -4.4,6.9c0.8,2.9 4.1,4.5 7.4,3.6c0.1,0 0.2,-0.1 0.3,-0.1c0.7,1 1.5,2 2.4,2.8c-0.2,0.4 -0.4,0.9 -0.5,1.4c-0.8,3.3 0.8,6.5 3.8,7.3c2.8,0.7 5.8,-1.1 6.7,-4.2c0.5,0.1 1.1,0.1 1.6,0.1c1.3,0 2.6,-0.2 3.8,-0.4c1.4,2.5 4.3,3.8 6.9,2.8c2.8,-1.1 4.2,-4.5 3,-7.7c-0.1,-0.3 -0.3,-0.6 -0.4,-0.9c0.7,-0.8 1.3,-1.7 1.8,-2.7c0.2,0.1 0.3,0.1 0.5,0.2c3.3,0.8 6.5,-0.9 7.3,-3.8c0.8,-3 -1.3,-6.1 -4.5,-6.9z"/>
     <path id="el__8kg4Ta0idY" d="m84.066703,39.900002c-0.4,-0.1 -0.9,-0.2 -1.3,-0.2c-0.2,-1.3 -0.5,-2.5 -0.9,-3.6c0.4,-0.3 0.8,-0.6 1.2,-1c2.4,-2.4 2.5,-6.1 0.4,-8.2c-2.2,-2.1 -5.8,-1.9 -8.2,0.5c-0.1,0.1 -0.2,0.2 -0.3,0.3c-0.9,-0.6 -2,-1.1 -3,-1.5c0.1,-0.3 0.1,-0.6 0.1,-0.9c0.1,-3.4 -2.2,-6.2 -5.3,-6.3c-3,-0.1 -5.6,2.5 -5.7,5.9c0,0.3 0,0.6 0,0.9c-1.6,0.5 -3.1,1.2 -4.5,2.1c-0.3,-0.2 -0.5,-0.4 -0.8,-0.6c-2.8,-1.8 -6.4,-1.3 -8.1,1.3c-1.7,2.5 -0.7,6.1 2.1,7.9c0,0 0,0 0,0c-0.6,1.5 -0.9,3.2 -1,4.9c-0.1,0 -0.2,0 -0.4,0.1c-3.2,0.9 -5.2,4 -4.4,6.9c0.8,2.9 4.1,4.5 7.4,3.6c0.1,0 0.2,-0.1 0.3,-0.1c0.7,1 1.5,2 2.4,2.8c-0.2,0.4 -0.4,0.9 -0.5,1.4c-0.8,3.3 0.8,6.5 3.8,7.3c2.8,0.7 5.8,-1.1 6.7,-4.2c0.5,0.1 1.1,0.1 1.6,0.1c1.3,0 2.6,-0.2 3.8,-0.4c1.4,2.5 4.3,3.8 6.9,2.8c2.8,-1.1 4.2,-4.5 3,-7.7c-0.1,-0.3 -0.3,-0.6 -0.4,-0.9c0.7,-0.8 1.3,-1.7 1.8,-2.7c0.2,0.1 0.3,0.1 0.5,0.2c3.3,0.8 6.5,-0.9 7.3,-3.8c0.8,-3 -1.3,-6 -4.5,-6.9z"/>
     <g id="el_w0LCAYzinXE">
      <g id="el_O9jExX05WF9">
       <path id="el_pxaIsIYURXV" d="m51.766703,33.400002c-1.4,0 -2.6,-1.2 -2.6,-2.6c0,-1.4 1.2,-2.6 2.6,-2.6c1.4,0 2.6,1.2 2.6,2.6c0,1.4 -1.2,2.6 -2.6,2.6zm0,-4.3c-0.9,0 -1.7,0.7 -1.7,1.7c0,0.9 0.7,1.7 1.7,1.7c0.9,0 1.7,-0.7 1.7,-1.7c-0.1,-1 -0.8,-1.7 -1.7,-1.7z"/>
      </g>
      <path id="el_C9NJ41lecoO" d="m53.866703,30.700002c0,1.2 -1,2.1 -2.1,2.1c-1.2,0 -2.1,-1 -2.1,-2.1c0,-1.2 1,-2.1 2.1,-2.1c1.2,0 2.1,1 2.1,2.1z"/>
     </g>
     <g id="el_0imgJTr60A7">
      <g id="el_J_FSxG8_a-8">
       <path id="el_0UuspWGMlmY" d="m66.566703,26.000002c-1.4,0 -2.6,-1.2 -2.6,-2.6c0,-1.4 1.2,-2.6 2.6,-2.6c1.4,0 2.6,1.2 2.6,2.6c0.1,1.4 -1.1,2.6 -2.6,2.6zm0,-4.3c-0.9,0 -1.7,0.7 -1.7,1.7c0,0.9 0.7,1.7 1.7,1.7c0.9,0 1.7,-0.7 1.7,-1.7c0,-0.9 -0.8,-1.7 -1.7,-1.7z"/>
      </g>
      <path id="el_UNRgKAvGeTx" d="m68.766703,23.400002c0,1.2 -1,2.1 -2.1,2.1c-1.2,0 -2.1,-1 -2.1,-2.1c0,-1.2 1,-2.1 2.1,-2.1c1.1,0 2.1,0.9 2.1,2.1z"/>
     </g>
     <g id="el_M_jzb9ouOBm">
      <g id="el_LqOJR541U_9">
       <path id="el_weL8dKyU6nW" d="m80.066703,32.600002c-1.4,0 -2.6,-1.2 -2.6,-2.6c0,-1.4 1.2,-2.6 2.6,-2.6c1.4,0 2.6,1.2 2.6,2.6c0.1,1.5 -1.1,2.6 -2.6,2.6zm0,-4.2c-0.9,0 -1.7,0.7 -1.7,1.7c0,0.9 0.7,1.7 1.7,1.7c0.9,0 1.7,-0.7 1.7,-1.7c0,-1 -0.7,-1.7 -1.7,-1.7z"/>
      </g>
      <path id="el_nh6_dGALCPT" d="m82.266703,30.000002c0,1.2 -1,2.1 -2.1,2.1s-2.1,-1 -2.1,-2.1c0,-1.2 1,-2.1 2.1,-2.1s2.1,0.9 2.1,2.1z"/>
     </g>
     <g id="el_6DArtSmqSgT">
      <g id="el_k3r01v6Oc2R">
       <path id="el_hzVV-uojU8K" d="m83.966703,48.100002c-1.4,0 -2.6,-1.2 -2.6,-2.6c0,-1.4 1.2,-2.6 2.6,-2.6c1.4,0 2.6,1.2 2.6,2.6c0,1.4 -1.2,2.6 -2.6,2.6zm0,-4.3c-0.9,0 -1.7,0.7 -1.7,1.7c0,0.9 0.7,1.7 1.7,1.7c0.9,0 1.7,-0.7 1.7,-1.7c0,-0.9 -0.8,-1.7 -1.7,-1.7z"/>
      </g>
      <path id="el_53QC2_y0PRv" d="m86.066703,45.500002c0,1.2 -1,2.1 -2.1,2.1c-1.2,0 -2.1,-1 -2.1,-2.1s1,-2.1 2.1,-2.1c1.2,-0.1 2.1,0.9 2.1,2.1z"/>
     </g>
     <g id="el_SRkmGgzQc8l">
      <g id="el_kPmZnaXEwvC">
       <path id="el_2NYx8oWKZsa" d="m74.666703,59.800002c-1.4,0 -2.6,-1.2 -2.6,-2.6c0,-1.4 1.2,-2.6 2.6,-2.6c1.4,0 2.6,1.2 2.6,2.6c0,1.4 -1.1,2.6 -2.6,2.6zm0,-4.3c-0.9,0 -1.7,0.7 -1.7,1.7c0,0.9 0.7,1.7 1.7,1.7s1.7,-0.7 1.7,-1.7c0,-1 -0.8,-1.7 -1.7,-1.7z"/>
      </g>
      <path id="el_rYtAxx-ugNc" d="m76.766703,57.200002c0,1.2 -1,2.1 -2.1,2.1s-2.1,-1 -2.1,-2.1s1,-2.1 2.1,-2.1s2.1,0.9 2.1,2.1z"/>
     </g>
     <g id="el_5W0D7cBiZT4">
      <g id="el_oCKCybaYZUU">
       <path id="el_vG7tAFjS-X6" d="m58.666703,61.300002c-1.4,0 -2.6,-1.2 -2.6,-2.6c0,-1.4 1.2,-2.6 2.6,-2.6c1.4,0 2.6,1.2 2.6,2.6c0,1.5 -1.2,2.6 -2.6,2.6zm0,-4.2c-0.9,0 -1.7,0.7 -1.7,1.7s0.7,1.7 1.7,1.7c0.9,0 1.7,-0.7 1.7,-1.7s-0.8,-1.7 -1.7,-1.7z"/>
      </g>
      <path id="el_9-MueSMRleO" d="m60.766703,58.700002c0,1.2 -1,2.1 -2.1,2.1c-1.2,0 -2.1,-1 -2.1,-2.1s1,-2.1 2.1,-2.1c1.1,0 2.1,0.9 2.1,2.1z"/>
     </g>
     <g id="el_0Ne0SnO4APg">
      <g id="el_2aRG5QlKZre">
       <path id="el_6ktGil_rIIu" d="m48.666703,49.400002c-1.4,0 -2.6,-1.2 -2.6,-2.6c0,-1.4 1.2,-2.6 2.6,-2.6c1.4,0 2.6,1.2 2.6,2.6c0,1.4 -1.2,2.6 -2.6,2.6zm0,-4.3c-0.9,0 -1.7,0.7 -1.7,1.7s0.7,1.7 1.7,1.7c0.9,0 1.7,-0.7 1.7,-1.7s-0.8,-1.7 -1.7,-1.7z"/>
      </g>
      <path id="el_8Ecvhw-_Y-j" d="m50.766703,46.800002c0,1.2 -1,2.1 -2.1,2.1c-1.2,0 -2.1,-1 -2.1,-2.1s1,-2.1 2.1,-2.1c1.1,0 2.1,0.9 2.1,2.1z"/>
     </g>
    </g></g>
    <g id="el_uRNtSzVwjD-">
     <path id="el_deBwaKeRT5P" d="m66.466703,55.200002c-5,0 -9.5,-3.2 -11.2,-7.9c-0.5,-1.3 -0.7,-2.7 -0.7,-4c0,-6.6 5.4,-11.9 11.9,-11.9c4.1,0 7.8,2.1 10,5.5c1.2,1.9 1.9,4.1 1.9,6.4c0.1,6.5 -5.3,11.9 -11.9,11.9zm0,-22c-5.5,0 -10,4.5 -10,10c0,1.1 0.2,2.3 0.6,3.4c1.4,4 5.2,6.6 9.4,6.6c5.5,0 10,-4.5 10,-10c0,-1.9 -0.5,-3.8 -1.6,-5.4c-1.8,-2.9 -4.9,-4.6 -8.4,-4.6z"/>
    </g>
    <g id="el_foR7x564Gtd">
     <path id="el_PicrIb6yz_y" d="m66.466703,54.200002c6.1,0 11,-4.9 11,-11c0,-2.2 -0.6,-4.2 -1.7,-5.9c-8.6,0.9 -15,5.2 -19.6,9.6c1.5,4.3 5.6,7.3 10.3,7.3z"/>
     <path id="el_Xn1pYF822X7" d="m66.466703,32.300002c-6.1,0 -11,4.9 -11,11c0,1.3 0.2,2.6 0.7,3.7c4.5,-4.4 11,-8.7 19.6,-9.6c-2,-3.1 -5.4,-5.1 -9.3,-5.1z"/>
    </g>
    <g id="el_2TRxTB8tIcj">
     <path id="el_t-DF6Ulg-KE" d="m66.466703,86.000002c-23.5,0 -42.5,-19.1 -42.5,-42.5c0,-23.5 19.1,-42.5 42.5,-42.5c23.5,0 42.5,19.1 42.5,42.5c0.1,23.4 -19,42.5 -42.5,42.5zm0,-79.7c-20.4,0 -37.1,16.6 -37.1,37.1c0,20.4 16.6,37.1 37.1,37.1c20.4,0 37.1,-16.6 37.1,-37.1c0,-20.4 -16.6,-37.1 -37.1,-37.1z"/>
    </g>
    <path id="el_3HFuiEzDJIa" d="m105.966703,42.900002c0,0 0,1 -0.1,2.8c0,0.5 0,1 -0.1,1.5c-0.1,0.6 -0.2,1.2 -0.3,1.8c-0.1,0.7 -0.2,1.4 -0.3,2.1c-0.2,0.7 -0.4,1.5 -0.6,2.4c-0.9,3.3 -2.2,7.3 -4.9,11.4c-2.6,4.1 -6.2,8.3 -11.1,11.7c-4.9,3.4 -11.1,5.9 -17.9,6.6c-0.8,0.1 -1.7,0.1 -2.6,0.2l-1.3,0.1l-0.7,0c-0.3,0 -0.5,0 -0.7,0c-1.7,-0.1 -3.4,-0.1 -5.2,-0.5c-3.6,-0.5 -7.1,-1.7 -10.5,-3.2c-0.8,-0.4 -1.7,-0.8 -2.5,-1.3c-0.8,-0.4 -1.6,-1 -2.4,-1.5l-1.2,-0.8l-1.1,-0.9c-0.7,-0.6 -1.5,-1.1 -2.2,-1.7c-2.9,-2.5 -5.4,-5.4 -7.6,-8.6c-2.2,-3.2 -3.8,-6.8 -5,-10.5c-1.2,-3.8 -1.7,-7.7 -1.9,-11.6c0.1,-2 0,-3.9 0.4,-5.9l0.2,-1.5l0.1,-0.7l0.2,-0.7l0.7,-2.9c1.2,-3.8 2.8,-7.4 4.9,-10.7c2.2,-3.3 4.8,-6.2 7.7,-8.7c0.7,-0.6 1.5,-1.2 2.3,-1.8l1.1,-0.9l1.2,-0.8c0.8,-0.5 1.6,-1 2.4,-1.5c0.8,-0.4 1.7,-0.8 2.5,-1.2c3.4,-1.5 7,-2.6 10.6,-3c1.8,-0.3 3.6,-0.3 5.3,-0.4c0.2,0 0.4,0 0.7,0l0.6,0l1.3,0.1c0.9,0.1 1.7,0 2.5,0.2c6.9,0.8 13,3.4 18,6.8c4.9,3.4 8.5,7.7 11.1,11.7c2.6,4.1 4,8.1 4.9,11.4c0.2,0.8 0.4,1.6 0.6,2.4c0.2,0.7 0.2,1.5 0.3,2.1c0.1,0.7 0.2,1.3 0.3,1.8c0.1,0.6 0.1,1.1 0.1,1.5c0.1,1.8 0.2,2.7 0.2,2.7l0,0zm-0.2,0c0,0 -0.1,-1 -0.2,-2.8c0,-0.5 0,-1 -0.1,-1.5c-0.1,-0.6 -0.2,-1.2 -0.3,-1.8c-0.1,-0.7 -0.2,-1.4 -0.4,-2.1c-0.2,-0.7 -0.4,-1.5 -0.6,-2.3c-1,-3.3 -2.5,-7.1 -5.2,-11c-2.7,-3.9 -6.4,-7.7 -11.3,-10.9c-4.8,-3.1 -10.8,-5.3 -17.2,-6.1c-0.8,-0.1 -1.7,-0.1 -2.5,-0.2l-1.3,-0.1l-0.6,0l-0.6,0c-1.7,0.1 -3.4,0.1 -5.1,0.4c-3.4,0.4 -6.8,1.5 -10.1,2.9c-0.8,0.4 -1.6,0.8 -2.4,1.2c-0.8,0.4 -1.6,0.9 -2.3,1.4l-1.2,0.7l-1.1,0.8c-0.7,0.6 -1.5,1.1 -2.2,1.7c-2.8,2.4 -5.3,5.2 -7.5,8.2c-2.1,3.1 -3.7,6.6 -5,10.2c-1.2,3.7 -1.7,7.4 -1.9,11.3c0,3.9 0.5,7.7 1.5,11.4c1.2,3.7 2.8,7.2 4.8,10.4c2.2,3.2 4.7,6 7.6,8.4c0.7,0.6 1.5,1.1 2.2,1.7c0.4,0.3 0.7,0.6 1.1,0.8l1.2,0.7c0.8,0.4 1.6,1 2.4,1.3c0.8,0.4 1.7,0.8 2.5,1.1c3.3,1.3 6.8,2.4 10.2,2.7c1.7,0.3 3.4,0.3 5.2,0.3c0.2,0 0.5,0 0.6,0l0.6,0l1.3,-0.1c0.8,-0.1 1.7,0 2.5,-0.2c6.5,-0.8 12.4,-3.2 17.3,-6.3c4.8,-3.1 8.6,-7 11.2,-10.9c2.7,-3.9 4.3,-7.8 5.2,-11c0.2,-0.8 0.4,-1.6 0.6,-2.3c0.2,-0.7 0.3,-1.4 0.4,-2.1c0.1,-0.7 0.2,-1.3 0.3,-1.8c0.1,-0.6 0.1,-1.1 0.1,-1.5c0.2,-1.6 0.3,-2.6 0.3,-2.6l0,0z"/>
   </g>
  </g>
 </g>
</svg>