<svg id="Слой_1" data-name="Слой 1" xmlns="http://www.w3.org/2000/svg" viewBox="0 0 995.5 167.29">
    <title>ns</title>

    <rect x="432.18" y="118.47" width="15.53" height="4.49"/>
    <rect x="491.2" y="90.31" width="4.52" height="15.56"/>
    <rect x="499.88" y="88.28" width="5.85" height="19.58"/>
    <rect x="433.78" y="111.13" width="12.37" height="4.02"/>
    <rect x="483.86" y="91.91" width="3.99" height="12.37"/>
    <rect x="509.76" y="87.68" width="5.98" height="20.85"/>
    <circle cx="455.69" cy="82.76" r="11.4"/>
    <path d="M495.63,522.53l-22.32,22.84a27.73,27.73,0,0,0-14.19-6.15V505.5c-38.67,0-47.85,21.55-47.85,21.55L433.75,549a27.7,27.7,0,0,0-6.45,15H394.21c0,38.67,21.55,47.85,21.55,47.85l22-22.58a28.23,28.23,0,0,0,15,6v33.15c38.67,0,47.85-21.55,47.85-21.55l-23-22.41a27.82,27.82,0,0,0,5.76-14.1h33.75C517.17,531.7,495.63,522.53,495.63,522.53Zm-39.94,61.54A17.09,17.09,0,1,1,472.78,567,17.13,17.13,0,0,1,455.69,584.07Z"
          transform="translate(0 -484.19)"/>
    <rect x="464.14" y="43.6" width="15.53" height="4.52"/>
    <rect x="422.84" y="61.22" width="3.99" height="12.37"/>
    <rect x="465.73" y="51.48" width="12.37" height="3.99"/>
    <rect x="462.11" y="33.59" width="19.58" height="5.85"/>
    <rect x="461.51" y="23.58" width="20.85" height="6.02"/>
    <rect x="430.19" y="127.15" width="19.58" height="5.85"/>
    <rect x="429.56" y="137.03" width="20.85" height="6.02"/>
    <rect x="394.95" y="56.99" width="5.98" height="20.85"/>
    <rect x="414.99" y="59.62" width="4.52" height="15.56"/>
    <rect x="404.99" y="57.63" width="5.85" height="19.58"/>

    <path d="M16.39,592.39A8.4,8.4,0,0,0,0,595c0,7.95,0,15.9,0,23.86s0,15.64,0,23.42a8.43,8.43,0,1,0,16.86.06q0-23.48,0-47A9.08,9.08,0,0,0,16.39,592.39Z"
          transform="translate(0 -484.19)"/>
    <path d="M995.47,492.85a9.13,9.13,0,0,0-.46-2.94,8.4,8.4,0,0,0-16.36,2.6c0,7.95,0,15.9,0,23.85s0,15.62,0,23.43a8.43,8.43,0,1,0,16.85.06Q995.52,516.38,995.47,492.85Z"
          transform="translate(0 -484.19)"/>
    <path d="M58.67,640H58c-8.7,0-14.86-6.14-14.86-14.81,0-4.33,0-8.68,0-13A14.26,14.26,0,0,1,57.62,597.7h1.05V586.21a36.83,36.83,0,0,0-9.12,1.55c-4.81,1.18-8.5,4.09-11.75,7.66-3.63,4-5.22,8.85-5.82,14-.47,4-.21,8.07-.35,12.1A42.34,42.34,0,0,0,33,633.11a23.33,23.33,0,0,0,7.23,11.7c5,4.66,11.18,6.57,17.8,6.59h.68Z"
          transform="translate(0 -484.19)"/>
    <path d="M938.72,495.86h.67c8.71,0,14.87,6.14,14.87,14.81,0,4.33,0,8.68,0,13a14.26,14.26,0,0,1-14.49,14.46h-1v11.49a36.91,36.91,0,0,0,9.12-1.55c4.81-1.18,8.5-4.09,11.75-7.66,3.63-4,5.22-8.85,5.82-14,.46-4,.2-8.07.35-12.1a42.73,42.73,0,0,0-1.33-11.59A23.33,23.33,0,0,0,957.2,491c-5-4.66-11.18-6.57-17.81-6.59h-.67Z"
          transform="translate(0 -484.19)"/>
    <path d="M938.72,538.16l-405.84,0L532,549.61c23.87.1,262.07.08,406.73.06Z" transform="translate(0 -484.19)"/>
    <path d="M532.88,495.91l405.84,0V484.51c-67.78-.08-405-.09-405.84-.09Z" transform="translate(0 -484.19)"/>
    <path d="M536.49,549.67c.84,0,1.68,0,2.51,0V538.2h-5.8c-3.14-9-8.21-16.74-14.06-24.06s-13.22-12.93-21-18.23H539V484.57c-26.78-.2-53.53,0-80.31-.1A100.12,100.12,0,0,0,436.22,487c-18.1,4.09-32.85,13.57-44.63,27.69a78.94,78.94,0,0,0-16.8,34.58c-2.11,9.74-2.94,19.48-1.36,29.33.41,2.48.95,5,1.5,7.69-.77-.1-315.52-.11-316.26-.11V597.7l319.52,0A85.94,85.94,0,0,0,414.49,640h-1.35L58.67,640,58,651.4c25.16.14,365,0,390.16,0a54.26,54.26,0,0,0,11.78-.83c5-1.1,10.06-1.59,15-2.65,18.1-3.92,32.76-13.49,44.55-27.58a79.32,79.32,0,0,0,16.83-34.58c2-9.07,2.91-18.12,1.67-27.34C537.61,555.55,537,552.67,536.49,549.67Zm-80.82,89.41a71.58,71.58,0,1,1,71.51-71.63A71.57,71.57,0,0,1,455.67,639.08Z"
          transform="translate(0 -484.19)"/>
</svg>
