<?xml version="1.0" encoding="utf-8"?>
<!-- Generator: Adobe Illustrator 22.0.0, SVG Export Plug-In . SVG Version: 6.00 Build 0)  -->
<svg version="1.1" id="Слой_1" xmlns="http://www.w3.org/2000/svg" xmlns:xlink="http://www.w3.org/1999/xlink" x="0px" y="0px"
	 viewBox="0 0 841.9 595.3" style="enable-background:new 0 0 841.9 595.3;" xml:space="preserve">
<style type="text/css">
	.st0{fill:#938994;}
	.st1{fill:#73717C;}
	.st2{fill:#7D7D82;}
	.st3{fill:#EEE6EF;}
	.st4{fill:#076BA6;}
	.st5{opacity:0.1;fill:#F1F2F2;}
	.st6{fill:#0D99D8;}
	.st7{fill:#3482B5;}
	.st8{fill:#959CA0;}
	.st9{fill:#9FA9AD;}
	.st10{fill:#D4D4D4;}
	.st11{fill:#C8CCCE;}
	.st12{fill:#B1B4B5;}
	.st13{fill:#064172;}
	.st14{fill:#1487C1;}
	.st15{fill:#224565;}
	.st16{fill:#56ABD6;}
	.st17{fill:#82CBE8;}
	.st18{fill:#153351;}
	.st19{fill:#63B3E2;}
	.st20{fill:#000101;}
	.st21{opacity:0.5;}
	.st22{fill:#0E8BC9;}
</style>
<g>
	<g>
		<rect x="351.2" y="306.9" class="st0" width="26.1" height="15.3"/>
		<rect x="351.2" y="317.5" class="st1" width="26.1" height="4.8"/>
		<rect x="351.2" y="306.9" class="st2" width="26.1" height="4.3"/>
		<rect x="351.8" y="310.3" class="st3" width="25.1" height="1.5"/>
	</g>
	<g>
		<rect x="463.7" y="306.9" class="st0" width="26.1" height="15.3"/>
		<rect x="463.7" y="317.5" class="st1" width="26.1" height="4.8"/>
		<rect x="463.7" y="306.9" class="st2" width="26.1" height="4.3"/>
		<rect x="464.4" y="310.3" class="st3" width="25.1" height="1.5"/>
	</g>
	<g>
		<rect x="379" y="303.5" class="st4" width="93.1" height="20.6"/>
		<polygon class="st5" points="375.9,313.8 375.9,320.9 390.3,320.9 390.3,320.8 468.2,320.8 468.2,313.9 390.3,313.9 390.3,313.8 
					"/>
	</g>
	<g>
		<path class="st6" d="M379.1,322.3v-16.5c0-3.3-1.5-5.9-3.3-5.9v28.3C377.6,328.2,379.1,325.6,379.1,322.3z"/>
		<rect x="373.2" y="299.8" class="st7" width="2.5" height="28.5"/>
		<path class="st6" d="M373.3,325.8v-23.5c0-4.7-0.7-4.7-1.6-4.7v32.9C372.6,330.5,373.3,330.4,373.3,325.8z"/>
		<rect x="370.2" y="297.6" class="st7" width="1.7" height="32.9"/>
	</g>
	<g>
		<path class="st6" d="M367.3,322.3v-16.5c0-3.3,1.5-5.9,3.3-5.9v28.3C368.8,328.2,367.3,325.6,367.3,322.3z"/>
		<rect x="370.6" y="299.8" class="st7" width="2.5" height="28.5"/>
		<path class="st6" d="M373,325.8v-23.5c0-4.7,0.7-4.7,1.6-4.7v32.9C373.7,330.5,373,330.4,373,325.8z"/>
		<rect x="374.5" y="297.6" class="st7" width="1.7" height="32.9"/>
	</g>
	<g>
		<path class="st6" d="M468.3,321.3v-16.5c0-3.3,1.5-5.9,3.3-5.9v28.3C469.8,327.3,468.3,324.6,468.3,321.3z"/>
		<rect x="471.6" y="298.9" class="st7" width="2.5" height="28.5"/>
		<path class="st6" d="M474,324.8v-23.5c0-4.7,0.7-4.7,1.6-4.7v32.9C474.7,329.5,474,329.5,474,324.8z"/>
		<rect x="475.5" y="296.6" class="st7" width="1.7" height="32.9"/>
	</g>
	<g>
		<g>
			<path class="st8" d="M449.5,345.9c-18.9,5.4-35.5,5.4-54.3,0c5.4-8,12.1-15.9,14.2-25.5c8.7,0,17.3,0,26,0
				C437.4,330,444.1,337.9,449.5,345.9z"/>
		</g>
		<g>
			<path class="st9" d="M439.9,345.9c-12.8,5.4-24.1,5.4-37,0c3.7-8,8.3-15.9,9.7-25.5c5.9,0,11.8,0,17.7,0
				C431.7,330,436.3,337.9,439.9,345.9z"/>
		</g>
		<path class="st10" d="M441.7,343.2h-36.5c-7.3,0-13.2,2.5-13.2,5.5h62.8C454.8,345.7,448.9,343.2,441.7,343.2z"/>
		<rect x="391.9" y="348.8" class="st11" width="63" height="4.2"/>
		<path class="st12" d="M449.4,352.8h-52c-10.4,0-10.3,1.2-10.3,2.7h72.8C459.8,354,459.7,352.8,449.4,352.8z"/>
		<rect x="387" y="355.2" class="st11" width="72.9" height="2.8"/>
		<g>
			<path class="st11" d="M430.7,343.2H411c-3.9,0-7.1,2.4-7.1,5.4h34C437.8,345.6,434.7,343.2,430.7,343.2z"/>
			<path class="st11" d="M440.6,354.8c0-1-0.2-1.8-2.6-2.2v-4h-34.1v4c-2.4,0.3-2.6,1.2-2.6,2.2h0v2.7h39.5L440.6,354.8L440.6,354.8
				z"/>
		</g>
		<path class="st8" d="M409.4,320c-0.4,2-1,3.8-1.8,5.7c4.7,1.6,10.3,2.5,16.2,2.5c4.9,0,9.5-0.6,13.6-1.7c-0.9-2.1-1.6-4.2-2.1-6.4
			C426.7,320,418,320,409.4,320z"/>
		<g>
			<path class="st4" d="M467.3,281.1c0,23.9-19.4,43.3-43.3,43.3c-23.9,0-43.3-19.4-43.3-43.3c0-23.9,19.4-43.3,43.3-43.3
				C447.9,237.8,467.3,257.2,467.3,281.1z"/>
		</g>
		<g>
			<g>
				<path class="st13" d="M424,311.6c-16.3,0-29.5-13.2-29.5-29.5c0-16.3,13.2-29.5,29.5-29.5c16.3,0,29.5,13.2,29.5,29.5
					C453.5,298.4,440.3,311.6,424,311.6z M424,254.3c-15.3,0-27.8,12.5-27.8,27.8c0,15.3,12.5,27.8,27.8,27.8s27.8-12.5,27.8-27.8
					C451.9,266.8,439.4,254.3,424,254.3z"/>
			</g>
			<g>
				<path class="st14" d="M452.7,281.1c0,15.8-12.8,28.7-28.7,28.7c-15.8,0-28.7-12.8-28.7-28.7c0-15.8,12.8-28.7,28.7-28.7
					C439.9,252.5,452.7,265.3,452.7,281.1z"/>
			</g>
		</g>
		<g>
			<path class="st15" d="M441.6,278.8c-0.4-0.1-0.9-0.2-1.3-0.2c-0.2-1.3-0.5-2.5-0.9-3.6c0.4-0.3,0.8-0.6,1.2-1
				c2.4-2.4,2.5-6.1,0.4-8.2c-2.2-2.1-5.8-1.9-8.2,0.5c-0.1,0.1-0.2,0.2-0.3,0.3c-0.9-0.6-2-1.1-3-1.5c0.1-0.3,0.1-0.6,0.1-0.9
				c0.1-3.4-2.2-6.2-5.3-6.3c-3-0.1-5.6,2.5-5.7,5.9c0,0.3,0,0.6,0,0.9c-1.6,0.5-3.1,1.2-4.5,2.1c-0.3-0.2-0.5-0.4-0.8-0.6
				c-2.8-1.8-6.4-1.3-8.1,1.3c-1.7,2.5-0.7,6.1,2.1,7.9c0,0,0,0,0,0c-0.6,1.5-0.9,3.2-1,4.9c-0.1,0-0.2,0-0.4,0.1
				c-3.2,0.9-5.2,4-4.4,6.9c0.8,2.9,4.1,4.5,7.4,3.6c0.1,0,0.2-0.1,0.3-0.1c0.7,1,1.5,2,2.4,2.8c-0.2,0.4-0.4,0.9-0.5,1.4
				c-0.8,3.3,0.8,6.5,3.8,7.3c2.8,0.7,5.8-1.1,6.7-4.2c0.5,0.1,1.1,0.1,1.6,0.1c1.3,0,2.6-0.2,3.8-0.4c1.4,2.5,4.3,3.8,6.9,2.8
				c2.8-1.1,4.2-4.5,3-7.7c-0.1-0.3-0.3-0.6-0.4-0.9c0.7-0.8,1.3-1.7,1.8-2.7c0.2,0.1,0.3,0.1,0.5,0.2c3.3,0.8,6.5-0.9,7.3-3.8
				C446.9,282.7,444.8,279.6,441.6,278.8z"/>
			<path class="st16" d="M441.6,277.8c-0.4-0.1-0.9-0.2-1.3-0.2c-0.2-1.3-0.5-2.5-0.9-3.6c0.4-0.3,0.8-0.6,1.2-1
				c2.4-2.4,2.5-6.1,0.4-8.2c-2.2-2.1-5.8-1.9-8.2,0.5c-0.1,0.1-0.2,0.2-0.3,0.3c-0.9-0.6-2-1.1-3-1.5c0.1-0.3,0.1-0.6,0.1-0.9
				c0.1-3.4-2.2-6.2-5.3-6.3c-3-0.1-5.6,2.5-5.7,5.9c0,0.3,0,0.6,0,0.9c-1.6,0.5-3.1,1.2-4.5,2.1c-0.3-0.2-0.5-0.4-0.8-0.6
				c-2.8-1.8-6.4-1.3-8.1,1.3c-1.7,2.5-0.7,6.1,2.1,7.9c0,0,0,0,0,0c-0.6,1.5-0.9,3.2-1,4.9c-0.1,0-0.2,0-0.4,0.1
				c-3.2,0.9-5.2,4-4.4,6.9c0.8,2.9,4.1,4.5,7.4,3.6c0.1,0,0.2-0.1,0.3-0.1c0.7,1,1.5,2,2.4,2.8c-0.2,0.4-0.4,0.9-0.5,1.4
				c-0.8,3.3,0.8,6.5,3.8,7.3c2.8,0.7,5.8-1.1,6.7-4.2c0.5,0.1,1.1,0.1,1.6,0.1c1.3,0,2.6-0.2,3.8-0.4c1.4,2.5,4.3,3.8,6.9,2.8
				c2.8-1.1,4.2-4.5,3-7.7c-0.1-0.3-0.3-0.6-0.4-0.9c0.7-0.8,1.3-1.7,1.8-2.7c0.2,0.1,0.3,0.1,0.5,0.2c3.3,0.8,6.5-0.9,7.3-3.8
				C446.9,281.7,444.8,278.7,441.6,277.8z"/>
			<g>
				<g>
					<path class="st17" d="M409.3,271.3c-1.4,0-2.6-1.2-2.6-2.6c0-1.4,1.2-2.6,2.6-2.6c1.4,0,2.6,1.2,2.6,2.6
						C411.9,270.1,410.7,271.3,409.3,271.3z M409.3,267c-0.9,0-1.7,0.7-1.7,1.7c0,0.9,0.7,1.7,1.7,1.7c0.9,0,1.7-0.7,1.7-1.7
						C410.9,267.7,410.2,267,409.3,267z"/>
				</g>
				<path class="st18" d="M411.4,268.6c0,1.2-1,2.1-2.1,2.1c-1.2,0-2.1-1-2.1-2.1c0-1.2,1-2.1,2.1-2.1
					C410.5,266.5,411.4,267.5,411.4,268.6z"/>
			</g>
			<g>
				<g>
					<path class="st17" d="M424.1,263.9c-1.4,0-2.6-1.2-2.6-2.6c0-1.4,1.2-2.6,2.6-2.6c1.4,0,2.6,1.2,2.6,2.6
						C426.8,262.7,425.6,263.9,424.1,263.9z M424.1,259.6c-0.9,0-1.7,0.7-1.7,1.7c0,0.9,0.7,1.7,1.7,1.7c0.9,0,1.7-0.7,1.7-1.7
						C425.8,260.4,425,259.6,424.1,259.6z"/>
				</g>
				<path class="st18" d="M426.3,261.3c0,1.2-1,2.1-2.1,2.1c-1.2,0-2.1-1-2.1-2.1c0-1.2,1-2.1,2.1-2.1
					C425.3,259.2,426.3,260.1,426.3,261.3z"/>
			</g>
			<g>
				<g>
					<path class="st17" d="M437.6,270.5c-1.4,0-2.6-1.2-2.6-2.6c0-1.4,1.2-2.6,2.6-2.6c1.4,0,2.6,1.2,2.6,2.6
						C440.3,269.4,439.1,270.5,437.6,270.5z M437.6,266.3c-0.9,0-1.7,0.7-1.7,1.7c0,0.9,0.7,1.7,1.7,1.7c0.9,0,1.7-0.7,1.7-1.7
						C439.3,267,438.6,266.3,437.6,266.3z"/>
				</g>
				<path class="st18" d="M439.8,267.9c0,1.2-1,2.1-2.1,2.1s-2.1-1-2.1-2.1c0-1.2,1-2.1,2.1-2.1S439.8,266.7,439.8,267.9z"/>
			</g>
			<g>
				<g>
					<path class="st17" d="M441.5,286c-1.4,0-2.6-1.2-2.6-2.6c0-1.4,1.2-2.6,2.6-2.6c1.4,0,2.6,1.2,2.6,2.6
						C444.1,284.8,442.9,286,441.5,286z M441.5,281.7c-0.9,0-1.7,0.7-1.7,1.7c0,0.9,0.7,1.7,1.7,1.7c0.9,0,1.7-0.7,1.7-1.7
						C443.2,282.5,442.4,281.7,441.5,281.7z"/>
				</g>
				<path class="st18" d="M443.6,283.4c0,1.2-1,2.1-2.1,2.1c-1.2,0-2.1-1-2.1-2.1s1-2.1,2.1-2.1
					C442.7,281.2,443.6,282.2,443.6,283.4z"/>
			</g>
			<g>
				<g>
					<path class="st17" d="M432.2,297.7c-1.4,0-2.6-1.2-2.6-2.6c0-1.4,1.2-2.6,2.6-2.6c1.4,0,2.6,1.2,2.6,2.6
						C434.8,296.5,433.7,297.7,432.2,297.7z M432.2,293.4c-0.9,0-1.7,0.7-1.7,1.7c0,0.9,0.7,1.7,1.7,1.7s1.7-0.7,1.7-1.7
						C433.9,294.1,433.1,293.4,432.2,293.4z"/>
				</g>
				<path class="st18" d="M434.3,295.1c0,1.2-1,2.1-2.1,2.1s-2.1-1-2.1-2.1s1-2.1,2.1-2.1S434.3,293.9,434.3,295.1z"/>
			</g>
			<g>
				<g>
					<path class="st17" d="M416.2,299.2c-1.4,0-2.6-1.2-2.6-2.6c0-1.4,1.2-2.6,2.6-2.6c1.4,0,2.6,1.2,2.6,2.6
						C418.8,298.1,417.6,299.2,416.2,299.2z M416.2,295c-0.9,0-1.7,0.7-1.7,1.7s0.7,1.7,1.7,1.7c0.9,0,1.7-0.7,1.7-1.7
						S417.1,295,416.2,295z"/>
				</g>
				<path class="st18" d="M418.3,296.6c0,1.2-1,2.1-2.1,2.1c-1.2,0-2.1-1-2.1-2.1s1-2.1,2.1-2.1
					C417.3,294.5,418.3,295.4,418.3,296.6z"/>
			</g>
			<g>
				<g>
					<path class="st17" d="M406.2,287.3c-1.4,0-2.6-1.2-2.6-2.6c0-1.4,1.2-2.6,2.6-2.6c1.4,0,2.6,1.2,2.6,2.6
						C408.8,286.1,407.6,287.3,406.2,287.3z M406.2,283c-0.9,0-1.7,0.7-1.7,1.7s0.7,1.7,1.7,1.7c0.9,0,1.7-0.7,1.7-1.7
						S407.1,283,406.2,283z"/>
				</g>
				<path class="st18" d="M408.3,284.7c0,1.2-1,2.1-2.1,2.1c-1.2,0-2.1-1-2.1-2.1s1-2.1,2.1-2.1
					C407.3,282.6,408.3,283.5,408.3,284.7z"/>
			</g>
		</g>
		<g>
			<path class="st19" d="M424,293.1c-5,0-9.5-3.2-11.2-7.9c-0.5-1.3-0.7-2.7-0.7-4c0-6.6,5.4-11.9,11.9-11.9c4.1,0,7.8,2.1,10,5.5
				c1.2,1.9,1.9,4.1,1.9,6.4C436,287.7,430.6,293.1,424,293.1z M424,271.1c-5.5,0-10,4.5-10,10c0,1.1,0.2,2.3,0.6,3.4
				c1.4,4,5.2,6.6,9.4,6.6c5.5,0,10-4.5,10-10c0-1.9-0.5-3.8-1.6-5.4C430.6,272.8,427.5,271.1,424,271.1z"/>
		</g>
		<g>
			<path class="st18" d="M424,292.1c6.1,0,11-4.9,11-11c0-2.2-0.6-4.2-1.7-5.9c-8.6,0.9-15,5.2-19.6,9.6
				C415.2,289.1,419.3,292.1,424,292.1z"/>
			<path class="st20" d="M424,270.2c-6.1,0-11,4.9-11,11c0,1.3,0.2,2.6,0.7,3.7c4.5-4.4,11-8.7,19.6-9.6
				C431.3,272.2,427.9,270.2,424,270.2z"/>
		</g>
		<g class="st21">
			<path class="st22" d="M424,323.9c-23.5,0-42.5-19.1-42.5-42.5c0-23.5,19.1-42.5,42.5-42.5c23.5,0,42.5,19.1,42.5,42.5
				C466.6,304.8,447.5,323.9,424,323.9z M424,244.2c-20.4,0-37.1,16.6-37.1,37.1c0,20.4,16.6,37.1,37.1,37.1
				c20.4,0,37.1-16.6,37.1-37.1C461.1,260.9,444.5,244.2,424,244.2z"/>
		</g>
		<path class="st22" d="M463.5,280.8c0,0,0,1-0.1,2.8c0,0.5,0,1-0.1,1.5c-0.1,0.6-0.2,1.2-0.3,1.8c-0.1,0.7-0.2,1.4-0.3,2.1
			c-0.2,0.7-0.4,1.5-0.6,2.4c-0.9,3.3-2.2,7.3-4.9,11.4c-2.6,4.1-6.2,8.3-11.1,11.7c-4.9,3.4-11.1,5.9-17.9,6.6
			c-0.8,0.1-1.7,0.1-2.6,0.2l-1.3,0.1l-0.7,0c-0.3,0-0.5,0-0.7,0c-1.7-0.1-3.4-0.1-5.2-0.5c-3.6-0.5-7.1-1.7-10.5-3.2
			c-0.8-0.4-1.7-0.8-2.5-1.3c-0.8-0.4-1.6-1-2.4-1.5l-1.2-0.8l-1.1-0.9c-0.7-0.6-1.5-1.1-2.2-1.7c-2.9-2.5-5.4-5.4-7.6-8.6
			c-2.2-3.2-3.8-6.8-5-10.5c-1.2-3.8-1.7-7.7-1.9-11.6c0.1-2,0-3.9,0.4-5.9l0.2-1.5l0.1-0.7l0.2-0.7l0.7-2.9
			c1.2-3.8,2.8-7.4,4.9-10.7c2.2-3.3,4.8-6.2,7.7-8.7c0.7-0.6,1.5-1.2,2.3-1.8l1.1-0.9l1.2-0.8c0.8-0.5,1.6-1,2.4-1.5
			c0.8-0.4,1.7-0.8,2.5-1.2c3.4-1.5,7-2.6,10.6-3c1.8-0.3,3.6-0.3,5.3-0.4c0.2,0,0.4,0,0.7,0l0.6,0l1.3,0.1c0.9,0.1,1.7,0,2.5,0.2
			c6.9,0.8,13,3.4,18,6.8c4.9,3.4,8.5,7.7,11.1,11.7c2.6,4.1,4,8.1,4.9,11.4c0.2,0.8,0.4,1.6,0.6,2.4c0.2,0.7,0.2,1.5,0.3,2.1
			c0.1,0.7,0.2,1.3,0.3,1.8c0.1,0.6,0.1,1.1,0.1,1.5C463.4,279.9,463.5,280.8,463.5,280.8L463.5,280.8z M463.3,280.8
			c0,0-0.1-1-0.2-2.8c0-0.5,0-1-0.1-1.5c-0.1-0.6-0.2-1.2-0.3-1.8c-0.1-0.7-0.2-1.4-0.4-2.1c-0.2-0.7-0.4-1.5-0.6-2.3
			c-1-3.3-2.5-7.1-5.2-11c-2.7-3.9-6.4-7.7-11.3-10.9c-4.8-3.1-10.8-5.3-17.2-6.1c-0.8-0.1-1.7-0.1-2.5-0.2l-1.3-0.1l-0.6,0l-0.6,0
			c-1.7,0.1-3.4,0.1-5.1,0.4c-3.4,0.4-6.8,1.5-10.1,2.9c-0.8,0.4-1.6,0.8-2.4,1.2c-0.8,0.4-1.6,0.9-2.3,1.4l-1.2,0.7l-1.1,0.8
			c-0.7,0.6-1.5,1.1-2.2,1.7c-2.8,2.4-5.3,5.2-7.5,8.2c-2.1,3.1-3.7,6.6-5,10.2c-1.2,3.7-1.7,7.4-1.9,11.3c0,3.9,0.5,7.7,1.5,11.4
			c1.2,3.7,2.8,7.2,4.8,10.4c2.2,3.2,4.7,6,7.6,8.4c0.7,0.6,1.5,1.1,2.2,1.7c0.4,0.3,0.7,0.6,1.1,0.8l1.2,0.7c0.8,0.4,1.6,1,2.4,1.3
			c0.8,0.4,1.7,0.8,2.5,1.1c3.3,1.3,6.8,2.4,10.2,2.7c1.7,0.3,3.4,0.3,5.2,0.3c0.2,0,0.5,0,0.6,0l0.6,0l1.3-0.1
			c0.8-0.1,1.7,0,2.5-0.2c6.5-0.8,12.4-3.2,17.3-6.3c4.8-3.1,8.6-7,11.2-10.9c2.7-3.9,4.3-7.8,5.2-11c0.2-0.8,0.4-1.6,0.6-2.3
			c0.2-0.7,0.3-1.4,0.4-2.1c0.1-0.7,0.2-1.3,0.3-1.8c0.1-0.6,0.1-1.1,0.1-1.5C463.2,281.8,463.3,280.8,463.3,280.8L463.3,280.8z"/>
	</g>
</g>
</svg>
