<?xml version="1.0" encoding="utf-8"?>
<!-- Generator: Adobe Illustrator 22.0.0, SVG Export Plug-In . SVG Version: 6.00 Build 0)  -->
<svg version="1.1" id="Слой_1" xmlns="http://www.w3.org/2000/svg" xmlns:xlink="http://www.w3.org/1999/xlink" x="0px" y="0px"
	 viewBox="0 0 841.9 595.3" style="enable-background:new 0 0 841.9 595.3;" xml:space="preserve">
<style type="text/css">
	.st0{fill:#076BA6;}
	.st1{fill:#1F89B9;}
	.st2{opacity:0.1;fill:#F1F2F2;}
	.st3{fill:#0D99D8;}
	.st4{opacity:0.2;fill:#F1F2F2;}
	.st5{opacity:0.3;fill:#F1F2F2;}
	.st6{fill:#00AEEA;}
	.st7{fill:#DBB492;}
	.st8{fill:#153351;}
	.st9{fill:#000101;}
	.st10{fill:#3482B5;}
	.st11{fill:#01557F;}
	.st12{fill:#359BD3;}
	.st13{opacity:0.3;fill:#01557F;}
	.st14{opacity:0.5;fill:#01557F;}
	.st15{fill:#23A0CC;}
	.st16{fill:#4080AE;}
	.st17{fill:#29B7EF;}
	.st18{fill:#4C94C1;}
</style>
<g>
	<rect x="394.8" y="231.4" class="st0" width="50.8" height="80.5"/>
	<rect x="393.9" y="223.3" class="st1" width="52.5" height="13.8"/>
	<polygon class="st2" points="420.2,228.8 402.7,228.8 402.7,241.2 403,241.2 403,308.6 419.9,308.6 419.9,241.2 420.2,241.2 	"/>
	<path class="st3" d="M438.3,210.4h-36.8c-7.3,0-13.3,5.9-13.3,13.3h63.3C451.6,216.3,445.6,210.4,438.3,210.4z"/>
	<path class="st4" d="M431,210.4h-26c-5.2,0-9.4,5.9-9.4,13.3h44.8C440.4,216.3,436.2,210.4,431,210.4z"/>
	<path class="st4" d="M423.6,210.4h-16c-3.2,0-5.8,5.9-5.8,13.3h27.6C429.4,216.3,426.8,210.4,423.6,210.4z"/>
	<rect x="389.6" y="310.3" class="st1" width="61.1" height="54.7"/>
	<rect x="399.3" y="313.3" class="st5" width="23.4" height="48.2"/>
	<path class="st6" d="M445.7,332.6c-0.5,7.3-3.6,12.8-10.2,12.3c-6.6-0.5-10.2-8-9.7-15.4c0.5-7.3,5.1-11,10.6-11.1
		C443,318.3,446.2,325.2,445.7,332.6z"/>
	<path class="st7" d="M446.3,332.3c-0.4,6.4-3.5,11.6-8.5,11.6c-5,0-9.1-5.4-9.1-12.1c0-6.7,4.1-12.4,9.1-12.1
		C444.2,320.1,446.6,325.6,446.3,332.3z"/>
	<g>
		<path class="st8" d="M431.3,338.2c1.4,2.1,3.3,3.5,5.5,3.5c4.1,0,7.5-4.8,7.5-10.6c0-2.5-0.6-4.8-1.6-6.6
			C438.8,326.3,434.7,330.2,431.3,338.2z"/>
		<path class="st9" d="M436.8,320.5c-4.1,0-7.5,4.8-7.5,10.6c0,2.8,0.7,5.3,1.9,7.1c3.4-8,7.6-11.9,11.4-13.7
			C441.3,322.1,439.2,320.5,436.8,320.5z"/>
	</g>
	<path class="st3" d="M445.3,364.6H395c-10,0-18.2,3.4-18.2,7.6h86.7C463.5,368,455.4,364.6,445.3,364.6z"/>
	<rect x="376.6" y="372.2" class="st10" width="87.1" height="5.9"/>
	<path class="st3" d="M456,377.8h-71.8c-14.3,0-14.3,1.7-14.3,3.7h100.5C470.4,379.5,470.3,377.8,456,377.8z"/>
	<rect x="369.8" y="381.1" class="st10" width="100.7" height="3.9"/>
	<g>
		<path class="st11" d="M421.4,254.5c0,0.6-0.5,1-1,1l0,0c-0.6,0-1.1-0.5-1.1-1v-16.2c0-0.6,0.5-1,1.1-1l0,0c0.6,0,1,0.5,1,1V254.5z
			"/>
		<path class="st12" d="M421.2,254.5c0,0.6-0.2,1-0.5,1l0,0c-0.3,0-0.5-0.5-0.5-1v-16.2c0-0.6,0.2-1,0.5-1l0,0c0.3,0,0.5,0.5,0.5,1
			V254.5z"/>
	</g>
	<g>
		<path class="st11" d="M428.7,254.5c0,0.6-0.5,1-1,1l0,0c-0.6,0-1-0.5-1-1v-16.2c0-0.6,0.5-1,1-1l0,0c0.6,0,1,0.5,1,1V254.5z"/>
		<path class="st12" d="M428.5,254.5c0,0.6-0.2,1-0.5,1l0,0c-0.3,0-0.5-0.5-0.5-1v-16.2c0-0.6,0.2-1,0.5-1l0,0c0.3,0,0.5,0.5,0.5,1
			V254.5z"/>
	</g>
	<g>
		<path class="st11" d="M435.8,254.5c0,0.6-0.5,1-1,1l0,0c-0.6,0-1.1-0.5-1.1-1v-16.2c0-0.6,0.5-1,1.1-1l0,0c0.6,0,1,0.5,1,1V254.5z
			"/>
		<path class="st12" d="M435.5,254.5c0,0.6-0.2,1-0.5,1l0,0c-0.3,0-0.5-0.5-0.5-1v-16.2c0-0.6,0.2-1,0.5-1l0,0c0.3,0,0.5,0.5,0.5,1
			V254.5z"/>
	</g>
	<g>
		<path class="st11" d="M443.4,254.5c0,0.6-0.5,1-1,1l0,0c-0.6,0-1-0.5-1-1v-16.2c0-0.6,0.5-1,1-1l0,0c0.6,0,1,0.5,1,1V254.5z"/>
		<path class="st12" d="M443.2,254.5c0,0.6-0.2,1-0.5,1l0,0c-0.3,0-0.5-0.5-0.5-1v-16.2c0-0.6,0.2-1,0.5-1l0,0c0.3,0,0.5,0.5,0.5,1
			V254.5z"/>
	</g>
	<g>
		<path class="st11" d="M399.5,254.5c0,0.6-0.5,1-1,1l0,0c-0.6,0-1.1-0.5-1.1-1v-16.2c0-0.6,0.5-1,1.1-1l0,0c0.6,0,1,0.5,1,1V254.5z
			"/>
		<path class="st12" d="M399.3,254.5c0,0.6-0.2,1-0.5,1l0,0c-0.3,0-0.5-0.5-0.5-1v-16.2c0-0.6,0.2-1,0.5-1l0,0c0.3,0,0.5,0.5,0.5,1
			V254.5z"/>
	</g>
	<g>
		<path class="st11" d="M406.6,254.5c0,0.6-0.5,1-1,1l0,0c-0.6,0-1.1-0.5-1.1-1v-16.2c0-0.6,0.5-1,1.1-1l0,0c0.6,0,1,0.5,1,1V254.5z
			"/>
		<path class="st12" d="M406.3,254.5c0,0.6-0.2,1-0.5,1l0,0c-0.3,0-0.5-0.5-0.5-1v-16.2c0-0.6,0.2-1,0.5-1l0,0c0.3,0,0.5,0.5,0.5,1
			V254.5z"/>
	</g>
	<g>
		<path class="st11" d="M414.2,254.5c0,0.6-0.5,1-1.1,1l0,0c-0.6,0-1-0.5-1-1v-16.2c0-0.6,0.5-1,1-1l0,0c0.6,0,1.1,0.5,1.1,1V254.5z
			"/>
		<path class="st12" d="M414,254.5c0,0.6-0.2,1-0.5,1l0,0c-0.3,0-0.5-0.5-0.5-1v-16.2c0-0.6,0.2-1,0.5-1l0,0c0.3,0,0.5,0.5,0.5,1
			V254.5z"/>
	</g>
	<rect x="394.9" y="237.3" class="st13" width="50.5" height="3.9"/>
	<rect x="393.9" y="223.7" class="st14" width="52.3" height="2.2"/>
	<g>
		<rect x="448.4" y="241.4" class="st0" width="1.7" height="69.6"/>
		<rect x="448.4" y="248.5" class="st11" width="1.7" height="0.4"/>
		<rect x="445.5" y="243" class="st0" width="2.5" height="5.1"/>
		<rect x="447.3" y="243.4" class="st1" width="3.9" height="5.2"/>
		<rect x="448" y="243.4" class="st15" width="2" height="5.2"/>
		<polygon class="st11" points="448.4,242.2 448.4,242.8 450.1,242.8 450.1,242.2 		"/>
		<g>
			<path class="st1" d="M450.7,241.6c0-0.6-0.3-0.8-0.9-0.8h-1.1c-0.7,0-1,0.2-1,0.8l0,0H450.7L450.7,241.6z"/>
			<path class="st0" d="M447.8,241.6c0,0.6,0.3,1,1,1h1.1c0.7,0,0.9-0.5,0.9-1H447.8z"/>
		</g>
	</g>
	<g>
		<rect x="422.9" y="241.4" class="st1" width="1.7" height="69.6"/>
		<rect x="422.9" y="248.5" class="st11" width="1.7" height="0.4"/>
		<rect x="420" y="243" class="st0" width="2.5" height="5.1"/>
		<rect x="421.8" y="243.4" class="st1" width="3.9" height="5.2"/>
		<rect x="422.5" y="243.4" class="st15" width="2" height="5.2"/>
		<polygon class="st11" points="422.9,242.2 422.9,242.8 424.6,242.8 424.6,242.2 		"/>
		<g>
			<path class="st1" d="M425.2,241.6c0-0.6-0.3-0.8-0.9-0.8h-1.1c-0.7,0-1,0.2-1,0.8l0,0H425.2L425.2,241.6z"/>
			<path class="st0" d="M422.3,241.6c0,0.6,0.3,1,1,1h1.1c0.7,0,0.9-0.5,0.9-1H422.3z"/>
		</g>
	</g>
	<g>
		<rect x="390.7" y="241.4" class="st0" width="1.7" height="69.6"/>
		<rect x="390.7" y="248.5" class="st11" width="1.7" height="0.4"/>
		<rect x="392.8" y="243" class="st0" width="2.5" height="5.1"/>
		<rect x="389.6" y="243.4" class="st1" width="3.9" height="5.2"/>
		<rect x="390.8" y="243.4" class="st15" width="2" height="5.2"/>
		<polygon class="st11" points="392.4,242.2 392.4,242.8 390.7,242.8 390.7,242.2 		"/>
		<g>
			<path class="st1" d="M390.1,241.6c0-0.6,0.3-0.8,0.9-0.8h1.1c0.7,0,1,0.2,1,0.8l0,0H390.1L390.1,241.6z"/>
			<path class="st0" d="M393,241.6c0,0.6-0.3,1-1,1H391c-0.6,0-0.9-0.5-0.9-1H393z"/>
		</g>
	</g>
	<g>
		<path class="st16" d="M409.6,370.1c0,0.7-1.9,1.8-4.3,1.8c-2.4,0-4.3-1.1-4.3-1.8c0-0.2-0.1-1.4,0.3-1.6c0.8-0.4,2.4,0.4,4,0.4
			c1.5,0,3.3-0.7,4.1-0.4C409.8,368.6,409.6,369.8,409.6,370.1z"/>
		<path class="st17" d="M409.6,368.7c0,0.7-1.9,1.8-4.3,1.8c-2.4,0-4.3-1.1-4.3-1.8c0-0.7,1.9-1.2,4.3-1.2
			C407.7,367.5,409.6,368,409.6,368.7z"/>
		<g>
			<path class="st18" d="M402.2,365.7l-0.1,2.8c0,0,0.7,0.4,1.5,0.7c0.5,0.2,1.1,0.4,1.5,0.5v-4.2L402.2,365.7z"/>
			<path class="st16" d="M408.3,365.3l-3.2,0.2v4.2c0.2,0.1,0.3,0.1,0.3,0.1l2.8-0.9l0.2-1.5L408.3,365.3z"/>
			<path class="st17" d="M405.1,367.9c0,0,0.9-0.7,1.7-0.8c0.8-0.1,1.4,0,1.4,0l0.1-1.7c0,0-0.9-0.2-1.4-0.3c-0.5-0.1-1-0.4-1-0.4
				s-1.1,0.1-1.6,0.2c-0.5,0.1-1.4,0.3-1.4,0.3l-0.8,0.6l0.2,1.2c0,0,0.3,0.1,1.2,0.3C404.3,367.4,405.1,367.9,405.1,367.9z"/>
		</g>
	</g>
	<g>
		<path class="st16" d="M439,370.1c0,0.7-1.9,1.8-4.3,1.8c-2.4,0-4.3-1.1-4.3-1.8c0-0.2-0.1-1.4,0.3-1.6c0.8-0.4,2.4,0.4,4,0.4
			c1.5,0,3.3-0.7,4.1-0.4C439.2,368.6,439,369.8,439,370.1z"/>
		<path class="st17" d="M439,368.7c0,0.7-1.9,1.8-4.3,1.8c-2.4,0-4.3-1.1-4.3-1.8c0-0.7,1.9-1.2,4.3-1.2
			C437.1,367.5,439,368,439,368.7z"/>
		<g>
			<path class="st18" d="M431.5,365.7l-0.1,2.8c0,0,0.7,0.4,1.5,0.7c0.5,0.2,1.1,0.4,1.5,0.5v-4.2L431.5,365.7z"/>
			<path class="st16" d="M437.6,365.3l-3.2,0.2v4.2c0.2,0.1,0.3,0.1,0.3,0.1l2.8-0.9l0.2-1.5L437.6,365.3z"/>
			<path class="st17" d="M434.5,367.9c0,0,0.9-0.7,1.7-0.8c0.8-0.1,1.4,0,1.4,0l0.1-1.7c0,0-0.9-0.2-1.4-0.3c-0.5-0.1-1-0.4-1-0.4
				s-1.1,0.1-1.6,0.2c-0.5,0.1-1.4,0.3-1.4,0.3l-0.8,0.6l0.2,1.2c0,0,0.3,0.1,1.2,0.3C433.7,367.4,434.5,367.9,434.5,367.9z"/>
		</g>
	</g>
	<g>
		<path class="st16" d="M462.3,370.1c0,0.7-1.9,1.8-4.3,1.8c-2.4,0-4.3-1.1-4.3-1.8c0-0.2-0.1-1.4,0.3-1.6c0.8-0.4,2.4,0.4,4,0.4
			c1.5,0,3.3-0.7,4.1-0.4C462.5,368.6,462.3,369.8,462.3,370.1z"/>
		<path class="st17" d="M462.3,368.7c0,0.7-1.9,1.8-4.3,1.8c-2.4,0-4.3-1.1-4.3-1.8c0-0.7,1.9-1.2,4.3-1.2
			C460.4,367.5,462.3,368,462.3,368.7z"/>
		<g>
			<path class="st18" d="M454.9,365.7l-0.1,2.8c0,0,0.7,0.4,1.5,0.7c0.5,0.2,1.1,0.4,1.5,0.5v-4.2L454.9,365.7z"/>
			<path class="st16" d="M461,365.3l-3.2,0.2v4.2c0.2,0.1,0.3,0.1,0.3,0.1l2.8-0.9l0.2-1.5L461,365.3z"/>
			<path class="st17" d="M457.8,367.9c0,0,0.9-0.7,1.7-0.8c0.8-0.1,1.4,0,1.4,0l0.1-1.7c0,0-0.9-0.2-1.4-0.3c-0.5-0.1-1-0.4-1-0.4
				s-1.1,0.1-1.6,0.2c-0.5,0.1-1.4,0.3-1.4,0.3l-0.8,0.6l0.2,1.2c0,0,0.3,0.1,1.2,0.3C457,367.4,457.8,367.9,457.8,367.9z"/>
		</g>
	</g>
	<g>
		<path class="st16" d="M386.1,370c0,0.7-1.9,1.8-4.3,1.8c-2.4,0-4.3-1.1-4.3-1.8c0-0.2-0.1-1.4,0.3-1.6c0.8-0.4,2.4,0.4,4,0.4
			c1.5,0,3.3-0.7,4.1-0.4C386.3,368.5,386.1,369.7,386.1,370z"/>
		<path class="st17" d="M386.1,368.6c0,0.7-1.9,1.8-4.3,1.8c-2.4,0-4.3-1.1-4.3-1.8c0-0.7,1.9-1.2,4.3-1.2
			C384.2,367.4,386.1,368,386.1,368.6z"/>
		<g>
			<path class="st18" d="M378.6,365.6l-0.1,2.8c0,0,0.7,0.4,1.5,0.7c0.5,0.2,1.1,0.4,1.5,0.5v-4.2L378.6,365.6z"/>
			<path class="st16" d="M384.7,365.3l-3.2,0.2v4.2c0.2,0.1,0.3,0.1,0.3,0.1l2.8-0.9l0.2-1.5L384.7,365.3z"/>
			<path class="st17" d="M381.5,367.8c0,0,0.9-0.7,1.7-0.8c0.7-0.1,1.4,0,1.4,0l0.1-1.7c0,0-0.9-0.2-1.4-0.3c-0.5-0.1-1-0.4-1-0.4
				s-1.1,0.1-1.6,0.2c-0.5,0.1-1.4,0.3-1.4,0.3l-0.8,0.6l0.2,1.2c0,0,0.3,0.1,1.2,0.3C380.8,367.3,381.5,367.8,381.5,367.8z"/>
		</g>
	</g>
</g>
</svg>
